<?xml version="1.0" encoding="UTF-8"?>
<!DOCTYPE svg PUBLIC "-//W3C//DTD SVG 1.1//EN" "http://www.w3.org/Graphics/SVG/1.1/DTD/svg11.dtd">
<!-- Creator: CorelDRAW -->
<svg xmlns="http://www.w3.org/2000/svg" xml:space="preserve" width="2048px" height="2048px" style="shape-rendering:geometricPrecision; text-rendering:geometricPrecision; image-rendering:optimizeQuality; fill-rule:evenodd; clip-rule:evenodd"
viewBox="0 0 2048 2048"
 xmlns:xlink="http://www.w3.org/1999/xlink">
 <defs>
  <style type="text/css">
   <![CDATA[
    .fil18 {fill:none}
    .fil17 {fill:#686868}
    .fil8 {fill:#797979}
    .fil13 {fill:#7C7C7C}
    .fil4 {fill:#818181}
    .fil14 {fill:#8C8D8D}
    .fil5 {fill:#909090}
    .fil9 {fill:#949494}
    .fil6 {fill:#9A9B9B}
    .fil15 {fill:#9B9B9C}
    .fil0 {fill:#A3A3A3}
    .fil10 {fill:darkgray}
    .fil16 {fill:#ACADAD}
    .fil1 {fill:#AFAFAF}
    .fil7 {fill:#B0B0B0}
    .fil11 {fill:#BABABB}
    .fil2 {fill:#BFC0C0}
    .fil12 {fill:#D0D0D1}
    .fil3 {fill:#DADADA}
   ]]>
  </style>
 </defs>
 <g id="Layer_x0020_1">
  <metadata id="CorelCorpID_0Corel-Layer"/>
  <g id="_423025992">
   <rect id="_423025440" class="fil0" x="255.999" y="1512.31" width="255.999" height="256"/>
   <rect id="_423026136" class="fil1" x="255.999" y="1256.31" width="255.999" height="256"/>
   <rect id="_423026064" class="fil2" x="255.999" y="1000.31" width="255.999" height="256"/>
   <rect id="_423025848" class="fil3" x="255.999" y="744.308" width="255.999" height="256"/>
  </g>
  <rect class="fil4" x="640.001" y="1256.31" width="255.999" height="256"/>
  <rect class="fil5" x="640.001" y="1000.31" width="255.999" height="256"/>
  <rect class="fil6" x="640.001" y="744.308" width="255.999" height="256"/>
  <rect class="fil7" x="640.001" y="488.307" width="255.999" height="256"/>
  <rect class="fil8" x="640.001" y="1512.31" width="255.999" height="256"/>
  <g id="_423023904">
   <rect id="_423024864" class="fil9" x="1024" y="1563.49" width="255.999" height="204.818"/>
   <rect id="_423024168" class="fil10" x="1024" y="1358.67" width="255.999" height="204.818"/>
   <rect id="_423024216" class="fil11" x="1024" y="1153.86" width="255.999" height="204.818"/>
   <rect id="_423024240" class="fil12" x="1024" y="949.038" width="255.999" height="204.818"/>
  </g>
  <g id="_423023136">
   <rect id="_423024456" class="fil13" x="1400.52" y="1163.39" width="255.999" height="302.462"/>
   <rect id="_423024552" class="fil14" x="1400.52" y="860.923" width="255.999" height="302.462"/>
   <rect id="_423024144" class="fil15" x="1400.52" y="558.461" width="255.999" height="302.462"/>
   <rect id="_423023184" class="fil16" x="1400.52" y="255.998" width="255.999" height="302.462"/>
   <rect id="_423023496" class="fil17" x="1400.52" y="1465.85" width="255.999" height="302.462"/>
  </g>
 </g>
 <rect class="fil18" width="2048" height="2048"/>
</svg>
